<?xml version="1.0" standalone="no"?>
<!DOCTYPE svg PUBLIC "-//W3C//DTD SVG 20010904//EN"
 "http://www.w3.org/TR/2001/REC-SVG-20010904/DTD/svg10.dtd">
<svg version="1.0" xmlns="http://www.w3.org/2000/svg"
 width="4000.000000pt" height="3120.000000pt" viewBox="0 0 4000.000000 3120.000000"
 preserveAspectRatio="xMidYMid meet">
<metadata>
Created by potrace 1.15, written by Peter Selinger 2001-2017
</metadata>
<g transform="translate(0.000000,3120.000000) scale(0.100000,-0.100000)"
fill="#000000" stroke="none">
<path d="M12164 27983 c4 -43 18 -136 31 -208 183 -986 937 -2047 2231 -3141
78 -65 330 -256 560 -424 784 -570 1649 -1218 1640 -1228 -2 -2 -31 11 -65 27
-33 17 -63 31 -66 31 -2 1 -89 41 -191 90 -103 50 -188 90 -190 90 -4 0 -286
135 -359 173 -125 63 -219 108 -229 110 -6 1 -13 5 -16 8 -10 13 -330 169
-330 162 0 -5 -4 -3 -8 3 -4 7 -74 46 -157 87 -175 87 -400 203 -500 257 -156
85 -265 139 -265 132 0 -4 -4 -2 -8 4 -9 14 -122 74 -138 74 -7 0 -14 4 -16 9
-5 16 -290 148 -343 159 -27 6 -53 8 -57 6 -16 -10 13 -56 85 -134 23 -24 41
-48 39 -53 -1 -5 2 -6 7 -3 5 3 30 -17 55 -44 26 -28 49 -50 53 -50 5 0 131
-106 143 -121 3 -3 10 -8 15 -10 6 -2 99 -71 208 -154 110 -82 209 -157 220
-165 12 -8 59 -42 104 -75 44 -33 161 -118 258 -190 97 -71 185 -137 195 -145
11 -8 44 -33 75 -54 30 -22 55 -43 55 -48 0 -4 5 -8 11 -8 15 0 219 -152 219
-162 0 -4 6 -8 13 -8 7 0 27 -13 45 -30 18 -16 36 -30 39 -30 5 0 119 -84 143
-107 8 -7 34 -26 56 -41 23 -15 55 -37 70 -49 16 -13 99 -75 184 -139 85 -63
160 -121 165 -128 6 -7 18 -15 28 -19 9 -3 17 -11 17 -17 0 -5 6 -10 14 -10 8
0 21 -6 28 -13 7 -7 49 -40 93 -72 44 -33 82 -63 85 -66 3 -3 64 -50 135 -104
72 -54 135 -104 141 -111 6 -8 14 -14 18 -14 9 0 547 -418 568 -441 9 -10 19
-19 23 -19 3 0 38 -26 78 -57 39 -32 78 -63 87 -70 140 -111 196 -157 210
-173 10 -11 20 -20 24 -20 3 0 14 -6 23 -14 248 -203 424 -349 445 -369 15
-14 36 -31 47 -39 21 -15 130 -110 200 -175 25 -24 69 -62 96 -85 65 -56 535
-528 535 -538 0 -4 19 -27 43 -52 84 -89 287 -329 287 -341 0 -2 16 -22 35
-43 19 -21 35 -43 35 -49 0 -6 9 -17 20 -25 11 -8 20 -18 20 -23 0 -4 9 -17
20 -29 33 -36 203 -278 274 -393 38 -60 80 -128 94 -150 14 -22 33 -52 44 -67
10 -15 18 -29 18 -31 0 -2 29 -56 64 -120 36 -65 62 -117 58 -117 -4 0 -2 -4
5 -8 10 -7 101 -185 170 -337 75 -165 203 -500 261 -685 48 -154 131 -478 148
-575 4 -22 8 -49 11 -60 18 -91 34 -173 38 -203 3 -20 7 -50 9 -67 17 -109 35
-249 40 -300 2 -33 10 -116 17 -185 14 -138 18 -742 7 -910 -8 -105 -24 -263
-33 -310 -2 -14 -7 -45 -10 -70 -4 -24 -11 -52 -16 -62 -5 -10 -8 -18 -5 -18
5 0 -27 -124 -42 -160 -5 -14 -9 -28 -8 -31 0 -4 -14 -30 -33 -59 l-33 -52
-29 50 c-116 203 -406 202 -511 -3 -27 -51 -35 -159 -18 -220 25 -90 151 -195
236 -195 29 0 32 -5 63 -79 18 -43 33 -85 34 -92 2 -8 6 -19 10 -26 12 -20 10
-193 -2 -193 -5 0 -9 -19 -14 -72 -1 -9 -4 -15 -8 -12 -9 5 -21 -25 -13 -37 3
-5 1 -9 -5 -9 -6 0 -14 -12 -17 -27 -6 -25 -119 -231 -133 -243 -3 -3 -15 -23
-26 -44 -48 -93 -445 -399 -760 -583 -119 -70 -414 -216 -547 -273 -71 -29
-128 -56 -128 -60 0 -4 69 -32 153 -64 83 -31 174 -67 202 -79 l50 -23 -92
-62 c-51 -34 -97 -62 -102 -62 -5 0 -11 -4 -13 -8 -1 -4 -45 -36 -96 -71 -50
-35 -103 -77 -117 -95 -14 -17 -29 -35 -34 -41 -9 -11 2 -60 18 -79 6 -7 8
-16 4 -19 -3 -4 1 -7 10 -7 10 0 17 -4 17 -10 0 -5 5 -10 10 -10 6 0 23 -8 37
-17 15 -10 43 -24 63 -31 74 -27 332 -113 500 -165 96 -31 220 -70 275 -87 55
-18 107 -33 115 -35 8 -2 15 -4 15 -5 0 -1 7 -3 15 -5 18 -3 446 -120 510
-139 25 -8 133 -35 240 -61 107 -26 202 -49 210 -52 8 -3 24 -7 35 -9 11 -1
90 -19 175 -39 85 -20 218 -50 295 -66 77 -17 149 -33 160 -35 21 -5 34 -8
100 -19 22 -3 51 -8 65 -11 160 -31 475 -86 590 -104 80 -12 156 -23 170 -26
28 -5 298 -40 375 -49 28 -3 109 -13 180 -22 129 -16 367 -22 415 -11 50 12
137 56 195 101 61 45 117 101 210 210 l49 57 66 -1 c36 0 138 -6 227 -12 l163
-12 93 95 c594 605 1082 1278 1417 1955 330 665 507 1282 582 2030 16 164 16
732 0 925 -79 932 -318 1653 -820 2485 -256 424 -478 719 -805 1073 -574 621
-1395 1217 -2552 1852 -408 224 -1570 806 -2160 1083 -170 80 -393 184 -495
232 -102 48 -403 186 -670 307 -1705 774 -2566 1190 -3480 1681 -996 535
-1687 1032 -2208 1587 -423 452 -705 907 -842 1363 -47 155 -52 196 -9 82 239
-647 872 -1256 1899 -1827 290 -161 459 -242 805 -386 1527 -634 3015 -1273
3015 -1295 0 -2 -73 7 -162 19 -90 12 -183 25 -208 27 -38 5 -169 24 -515 77
-33 5 -98 16 -144 24 -46 9 -88 13 -92 10 -5 -3 -9 -1 -9 3 0 5 -11 10 -24 11
-14 1 -64 9 -113 17 -48 9 -106 18 -128 21 -22 3 -78 12 -124 19 -47 8 -86 13
-89 11 -2 -2 -16 -1 -32 4 -15 4 -74 11 -131 15 -57 4 -106 7 -109 8 -3 1 -21
-4 -40 -11 l-35 -13 32 -29 c20 -18 27 -31 20 -34 -7 -2 -1 -5 11 -5 13 -1 36
-9 50 -20 15 -10 44 -26 65 -36 20 -9 37 -21 37 -24 0 -4 6 -8 13 -8 6 0 31
-12 54 -26 24 -15 47 -27 51 -27 5 0 44 -17 88 -38 43 -22 117 -56 164 -76 47
-21 105 -47 130 -58 25 -12 131 -58 235 -103 260 -113 501 -218 555 -243 25
-11 232 -104 461 -206 485 -216 512 -228 521 -241 4 -5 8 -7 8 -3 0 7 50 -14
180 -74 36 -16 110 -50 165 -75 55 -25 150 -69 212 -98 62 -30 183 -87 270
-127 87 -40 160 -75 163 -78 3 -3 12 -6 20 -8 8 -2 74 -32 147 -68 72 -35 136
-64 142 -64 6 0 11 -5 11 -12 0 -6 3 -9 6 -5 4 3 42 -12 85 -34 43 -21 80 -39
81 -38 2 0 57 -26 123 -58 66 -33 163 -79 215 -103 52 -24 100 -47 105 -51 6
-4 98 -51 205 -104 248 -123 352 -176 365 -185 6 -4 100 -53 210 -110 110 -57
202 -106 205 -109 3 -3 28 -17 55 -30 138 -64 946 -525 953 -542 2 -5 8 -9 14
-9 11 0 187 -105 333 -198 254 -162 490 -318 508 -336 9 -9 19 -16 22 -16 9 0
146 -99 286 -205 112 -85 147 -113 268 -213 42 -35 83 -69 91 -76 138 -113
517 -475 661 -631 243 -264 579 -672 579 -703 0 -6 4 -12 8 -14 12 -4 142
-186 142 -197 0 -5 4 -11 8 -13 9 -3 72 -93 72 -103 0 -3 5 -11 11 -18 38 -43
195 -300 258 -422 14 -27 29 -52 32 -55 4 -3 24 -41 45 -85 22 -44 42 -82 46
-85 15 -12 192 -400 262 -578 328 -825 487 -1714 461 -2582 -4 -140 -9 -268
-10 -285 -10 -138 -19 -220 -36 -345 -11 -80 -23 -163 -25 -185 -9 -67 -62
-343 -90 -465 -49 -215 -181 -652 -231 -768 -9 -20 -17 -39 -18 -42 -13 -63
-194 -483 -287 -665 -168 -330 -330 -603 -552 -934 -178 -267 -208 -335 -171
-387 8 -12 11 -25 7 -29 -4 -5 -1 -5 6 -1 7 4 20 2 28 -5 37 -31 261 -18 554
32 63 11 131 22 150 25 39 6 250 46 305 58 11 2 67 16 125 31 57 15 113 28
125 30 11 1 27 5 35 8 8 3 89 27 180 52 91 26 242 74 335 107 94 33 175 61
180 62 6 2 21 8 35 14 14 5 79 33 145 60 126 52 349 155 375 172 8 6 27 15 41
21 14 5 41 19 60 29 62 36 192 97 359 171 786 343 1393 765 1917 1331 234 252
374 428 540 678 417 627 686 1329 813 2120 63 394 85 728 77 1170 -12 666 -92
1208 -266 1812 -213 738 -530 1402 -1014 2128 -682 1022 -1552 1796 -2617
2329 -952 476 -2579 957 -4294 1271 -586 107 -665 119 -1656 245 -830 105
-920 117 -1370 175 -331 43 -673 88 -925 120 -1173 150 -1451 191 -1973 289
-1533 289 -2769 723 -3692 1296 -631 392 -1119 850 -1465 1378 -21 31 -40 57
-43 57 -3 0 -2 -35 2 -77z"/>
<path d="M11885 16826 c-225 -44 -446 -175 -641 -378 -256 -267 -405 -627
-445 -1078 -27 -313 20 -578 138 -779 154 -260 368 -376 755 -411 270 -25 539
32 748 158 199 121 414 331 555 544 l37 57 -58 108 -57 107 -21 -29 c-160
-221 -293 -354 -471 -471 -139 -91 -286 -140 -450 -151 -130 -8 -222 9 -331
62 -157 76 -229 178 -286 402 -20 78 -23 113 -23 303 1 164 5 239 19 315 57
309 178 556 366 746 71 72 100 93 180 132 118 58 202 73 316 57 175 -24 271
-117 295 -285 25 -178 -62 -353 -199 -399 -107 -37 -190 -5 -233 89 -24 52
-24 101 1 150 11 21 18 40 16 43 -3 2 -41 -1 -87 -6 -108 -13 -200 -59 -244
-120 -27 -40 -30 -51 -30 -121 0 -73 2 -81 36 -132 96 -145 300 -223 519 -200
185 21 324 106 426 262 54 83 82 154 100 249 67 372 -117 667 -475 761 -100
27 -354 35 -456 15z"/>
<path d="M15485 16833 c-11 -2 -47 -13 -80 -25 l-61 -20 -107 -277 c-59 -152
-194 -501 -300 -776 l-193 -499 -140 -71 c-354 -178 -516 -343 -546 -557 -12
-88 -5 -158 23 -234 24 -65 85 -137 139 -164 88 -45 225 -45 365 1 60 20 77
32 147 103 85 86 133 169 188 326 31 87 171 453 176 459 6 7 467 151 471 147
2 -2 8 -46 14 -97 19 -188 60 -525 70 -579 29 -157 75 -250 150 -309 98 -78
261 -96 416 -47 168 54 361 215 536 447 l87 115 -41 100 c-22 54 -43 105 -46
112 -9 21 -18 14 -63 -50 -132 -187 -359 -371 -477 -384 -43 -6 -53 -3 -80 20
-38 32 -48 70 -68 271 -37 373 -145 1792 -145 1907 l0 67 -37 10 c-36 10 -356
13 -398 4z m19 -773 c19 -152 49 -530 43 -536 -2 -3 -82 -31 -177 -64 -170
-58 -172 -59 -166 -35 4 14 63 177 132 362 69 186 131 353 137 370 6 18 11 32
13 30 1 -1 9 -58 18 -127z m-949 -1302 c-85 -214 -115 -258 -177 -258 -45 0
-68 32 -68 92 0 69 29 126 93 184 50 45 197 138 205 129 2 -2 -22 -68 -53
-147z"/>
<path d="M18865 16826 c-219 -43 -418 -158 -615 -356 -248 -247 -398 -565
-456 -967 -26 -176 -25 -468 3 -593 63 -287 215 -510 421 -614 235 -119 604
-155 887 -87 229 56 437 183 641 393 127 130 273 322 262 345 -10 25 -110 203
-113 203 -2 0 -21 -26 -42 -57 -121 -183 -357 -400 -531 -488 -90 -46 -170
-73 -271 -90 -163 -29 -290 -15 -418 45 -157 74 -235 177 -290 387 -20 78 -26
130 -30 259 -15 466 117 851 385 1122 73 74 102 96 182 135 140 69 252 81 397
41 67 -18 141 -78 175 -140 80 -147 47 -372 -70 -474 -119 -105 -266 -89 -323
35 -24 52 -24 101 1 150 11 21 18 40 16 43 -3 2 -41 -1 -87 -6 -108 -13 -200
-59 -243 -120 -42 -60 -48 -150 -15 -219 47 -98 165 -184 301 -220 84 -22 255
-21 334 2 223 65 383 248 430 493 70 367 -117 669 -474 764 -100 26 -353 34
-457 14z"/>
<path d="M32007 15930 c-4 -19 -21 -122 -37 -229 -152 -975 -427 -1788 -858
-2538 -277 -483 -512 -798 -857 -1152 -411 -421 -838 -750 -1341 -1034 -967
-547 -2018 -843 -3309 -934 -334 -24 -1085 -23 -1425 0 -712 50 -1393 143
-2085 283 -1364 277 -3273 893 -5695 1837 -204 79 -1156 462 -1445 580 -2715
1111 -4893 1759 -6824 2032 -139 20 -255 34 -258 32 -2 -2 38 -21 89 -42 120
-49 494 -235 623 -310 337 -195 596 -376 900 -629 116 -96 365 -334 365 -348
0 -5 -4 -6 -10 -3 -5 3 -19 8 -30 10 -12 2 -54 13 -94 24 -40 11 -83 22 -97
26 -13 3 -121 30 -239 60 -118 31 -259 64 -312 75 -53 11 -103 22 -110 25 -7
2 -62 12 -123 20 -139 21 -211 14 -227 -21 -9 -19 -8 -30 3 -51 17 -33 111
-129 204 -210 279 -241 351 -307 544 -503 169 -171 443 -480 449 -506 2 -8 7
-14 11 -14 26 0 511 -654 511 -689 0 -5 4 -11 9 -13 20 -7 179 -273 298 -498
28 -52 76 -143 107 -202 32 -60 54 -108 49 -108 -4 0 -3 -4 3 -8 13 -8 327
-632 318 -632 -3 0 4 -13 15 -29 12 -16 21 -32 21 -36 0 -3 38 -82 85 -176 46
-93 81 -169 77 -169 -4 0 -2 -4 4 -8 11 -7 422 -851 427 -875 1 -7 5 -14 8
-17 10 -8 251 -514 252 -527 0 -7 4 -13 9 -13 4 0 8 -5 8 -11 0 -16 155 -322
193 -382 70 -109 198 -208 312 -243 6 -2 105 -33 220 -69 116 -37 293 -90 395
-120 162 -46 259 -74 590 -165 41 -11 86 -23 100 -26 14 -3 70 -17 125 -30
196 -50 550 -135 580 -140 17 -2 53 -10 80 -18 45 -12 101 -25 145 -31 8 -1
35 -8 60 -14 25 -7 59 -14 75 -17 17 -3 73 -15 125 -26 181 -38 235 -49 265
-54 17 -3 73 -14 125 -25 52 -11 113 -22 135 -24 21 -3 53 -9 70 -14 16 -5 50
-12 75 -16 91 -12 115 -16 130 -21 8 -3 37 -8 65 -11 27 -3 53 -7 58 -10 4 -2
24 -6 45 -8 20 -3 138 -20 262 -40 473 -75 1032 -148 1410 -185 118 -11 235
-23 260 -25 122 -13 386 -35 475 -40 55 -3 111 -8 125 -10 14 -2 70 -7 125
-10 55 -3 134 -8 175 -10 274 -20 691 -30 1170 -29 593 1 1057 22 1532 70 86
8 176 17 200 19 206 17 734 97 1088 165 113 22 216 41 230 44 14 2 45 9 70 15
25 5 74 17 110 25 182 42 294 70 428 107 81 23 179 49 217 59 162 42 722 230
850 285 17 7 91 36 165 65 74 28 153 60 175 70 22 10 99 44 170 75 72 31 222
102 335 157 113 55 275 132 360 170 437 198 755 363 1150 596 523 310 968 610
1399 946 584 454 1011 850 1522 1411 235 259 545 662 786 1023 78 118 141 204
140 193 -1 -12 -4 -21 -8 -21 -3 0 -12 -19 -19 -42 -8 -24 -22 -55 -33 -70
-10 -16 -16 -28 -13 -28 5 0 -6 -28 -39 -105 -7 -16 -29 -70 -50 -120 -45
-108 -58 -138 -125 -280 -29 -60 -61 -128 -71 -150 -10 -22 -23 -47 -29 -55
-5 -8 -27 -51 -48 -95 -53 -110 -174 -329 -184 -333 -4 -2 -8 -8 -8 -14 0 -18
-187 -329 -202 -336 -5 -2 -8 -9 -8 -15 0 -22 -376 -584 -523 -782 -12 -16
-56 -75 -97 -130 -90 -122 -559 -594 -770 -776 -795 -686 -1674 -1211 -2745
-1637 -1213 -483 -2589 -774 -4155 -877 -452 -29 -815 -38 -1420 -32 -614 6
-992 21 -1450 57 -1849 145 -3473 450 -5319 999 -112 34 -206 60 -207 58 -5
-5 199 -370 308 -552 53 -88 162 -263 242 -390 85 -134 141 -231 133 -233 -6
-1 -100 21 -207 49 -243 63 -310 80 -335 85 -11 2 -47 10 -80 19 -33 8 -91 17
-129 20 -59 3 -74 1 -99 -17 -28 -20 -29 -24 -24 -76 8 -85 67 -190 277 -497
90 -131 190 -267 282 -385 33 -41 71 -91 86 -110 69 -88 270 -317 378 -431
274 -289 623 -592 884 -769 28 -19 60 -42 70 -51 18 -17 100 -69 235 -151 39
-23 72 -45 75 -48 8 -11 308 -174 425 -232 132 -66 270 -128 285 -128 5 0 10
-4 10 -8 0 -5 18 -14 39 -21 22 -6 55 -18 75 -26 20 -8 37 -15 38 -14 2 1 21
-7 43 -18 103 -52 634 -219 865 -272 52 -12 120 -29 150 -37 316 -83 1173
-214 1570 -238 465 -29 1146 -32 1480 -6 74 6 167 12 205 15 113 7 501 49 595
64 30 5 62 9 70 9 8 0 42 5 75 11 33 6 76 13 95 15 51 7 300 52 480 86 194 37
170 32 335 70 77 17 151 33 165 35 14 2 25 4 25 5 0 0 97 25 215 56 118 30
280 73 359 95 80 23 150 42 155 44 51 10 473 147 576 186 41 16 84 30 95 32
11 1 25 5 30 9 6 3 91 36 190 73 99 37 198 76 220 85 22 10 72 30 110 45 39
15 81 33 95 40 14 7 66 30 115 50 50 21 136 59 193 86 57 27 105 49 108 49 3
0 74 34 157 76 84 42 211 102 282 134 182 81 617 292 820 398 1052 550 2020
1256 2874 2097 619 610 1114 1219 1537 1893 818 1303 1298 2743 1453 4362 40
418 46 562 46 1155 -1 587 -8 768 -50 1225 -15 158 -57 535 -74 650 -7 54 -8
54 -14 20z m-152 -1652 c-82 -710 -251 -1325 -548 -1988 -49 -110 -204 -420
-210 -420 -1 0 -2 88 -2 197 0 143 -3 197 -12 200 -7 2 -10 10 -7 17 3 7 -2
18 -9 25 -12 10 11 63 147 334 277 549 452 1001 602 1545 21 78 40 142 42 142
1 0 0 -24 -3 -52z"/>
<path d="M13200 14680 c-100 -47 -160 -134 -168 -242 -6 -92 11 -148 65 -208
61 -68 129 -100 212 -100 80 0 132 22 197 82 146 134 116 350 -63 455 -64 37
-178 43 -243 13z"/>
<path d="M16934 14681 c-56 -25 -121 -86 -146 -135 -27 -52 -35 -160 -18 -221
17 -60 85 -136 152 -169 65 -33 161 -35 225 -7 107 49 183 159 183 266 0 107
-76 217 -183 266 -56 25 -158 25 -213 0z"/>
</g>
</svg>
