<?xml version="1.0" standalone="no"?>
<!DOCTYPE svg PUBLIC "-//W3C//DTD SVG 20010904//EN"
 "http://www.w3.org/TR/2001/REC-SVG-20010904/DTD/svg10.dtd">
<svg version="1.0" xmlns="http://www.w3.org/2000/svg"
 width="800.000000pt" height="800.000000pt" viewBox="0 0 800.000000 800.000000"
 preserveAspectRatio="xMidYMid meet">
<metadata>
Created by potrace 1.15, written by Peter Selinger 2001-2017
</metadata>
<g transform="translate(0.000000,800.000000) scale(0.100000,-0.100000)"
fill="#000000" stroke="none">
<path d="M1683 7663 c3 -5 8 -30 11 -58 22 -193 183 -471 405 -698 140 -144
259 -244 501 -422 189 -139 333 -249 365 -277 23 -20 -213 94 -642 310 -142
72 -163 80 -163 62 0 -13 115 -110 250 -211 839 -625 1031 -777 1230 -978 394
-396 590 -851 590 -1366 0 -308 -91 -609 -222 -735 -69 -67 -191 -148 -302
-201 l-88 -42 58 -27 59 -26 -40 -26 c-46 -29 -85 -65 -85 -77 0 -60 677 -243
1120 -302 230 -30 249 -28 325 42 45 42 47 42 114 40 l68 -2 79 86 c346 380
524 775 541 1200 11 274 -41 545 -141 744 -15 29 -25 56 -22 59 7 7 74 -137
119 -258 91 -243 132 -561 108 -820 -33 -336 -128 -603 -336 -935 -41 -66 -75
-127 -75 -136 0 -32 43 -39 147 -23 199 29 410 90 558 159 38 18 113 51 165
74 529 229 879 647 980 1168 84 433 22 883 -176 1289 -76 156 -233 395 -341
519 -201 230 -474 418 -788 543 -309 123 -870 266 -1276 326 -95 14 -785 104
-1094 142 -733 90 -1249 249 -1616 496 -131 88 -264 212 -334 311 -22 31 -44
57 -48 57 -5 0 -6 -3 -4 -7z m136 -238 c51 -64 136 -140 236 -212 144 -104
301 -183 675 -341 404 -171 630 -271 630 -279 0 -3 -14 -3 -32 1 -89 18 -362
59 -423 63 -65 5 -69 5 -55 -11 17 -21 132 -80 295 -151 161 -70 366 -161 440
-195 560 -259 707 -331 937 -461 314 -176 536 -324 658 -439 l65 -61 -96 74
c-217 167 -444 300 -876 516 -241 121 -340 168 -888 419 -226 103 -730 355
-885 442 -381 213 -634 448 -755 702 -44 91 -45 122 -2 45 17 -31 52 -82 76
-112z"/>
<path d="M1587 4360 c-169 -43 -293 -214 -313 -432 -15 -172 58 -304 190 -339
65 -18 188 -12 251 12 59 22 148 96 196 163 27 36 28 40 13 67 -8 16 -18 29
-22 29 -4 0 -20 -19 -37 -41 -34 -47 -105 -102 -161 -125 -91 -38 -205 -8
-239 62 -76 160 0 426 140 494 62 30 110 27 147 -10 28 -28 30 -35 26 -82 -4
-38 -12 -57 -28 -70 -44 -35 -107 -11 -97 39 4 20 0 23 -23 23 -37 0 -80 -35
-80 -66 0 -14 15 -40 34 -61 30 -33 39 -37 92 -41 77 -5 124 14 163 68 50 69
53 163 8 231 -42 64 -168 102 -260 79z"/>
<path d="M2547 4360 c-178 -45 -308 -238 -310 -465 -2 -144 42 -238 136 -288
37 -19 57 -22 162 -22 113 0 123 2 171 28 59 33 133 101 170 157 25 37 25 39
9 64 -10 14 -20 26 -24 26 -3 0 -17 -16 -30 -36 -69 -100 -213 -168 -305 -143
-87 24 -128 95 -127 223 1 127 32 215 104 294 45 49 89 72 136 72 68 0 101
-36 101 -111 0 -72 -73 -116 -115 -69 -10 11 -15 28 -12 40 8 30 -47 27 -78
-5 -30 -30 -31 -54 -4 -89 29 -37 71 -56 124 -56 120 0 197 95 181 224 -6 58
-42 108 -95 135 -45 24 -142 34 -194 21z"/>
<path d="M3615 4363 c-11 -3 -24 -8 -28 -13 -5 -4 -48 -108 -95 -231 l-87
-223 -60 -34 c-104 -58 -145 -109 -145 -181 0 -30 7 -48 28 -70 26 -29 47 -35
111 -32 42 2 94 68 136 174 l38 97 64 20 c36 11 66 20 68 20 1 0 6 -33 9 -72
19 -189 48 -238 141 -238 53 0 100 26 162 89 60 62 69 83 53 126 l-11 29 -37
-42 c-45 -51 -100 -92 -124 -92 -9 0 -22 8 -27 18 -6 11 -22 160 -36 332 -17
216 -29 316 -38 322 -13 8 -89 9 -122 1z"/>
<path d="M7546 4053 c-3 -15 -10 -57 -16 -93 -41 -243 -130 -478 -276 -727
-200 -341 -562 -623 -969 -758 -126 -41 -327 -88 -465 -107 -144 -20 -628 -17
-805 5 -572 71 -1255 278 -2315 704 -827 332 -1187 456 -1654 568 -247 59
-547 116 -608 115 -7 0 29 -20 80 -45 151 -72 343 -206 439 -307 l33 -34 -113
28 c-135 34 -221 45 -231 29 -4 -6 62 -79 162 -178 175 -175 299 -327 384
-473 30 -53 285 -561 351 -700 163 -347 179 -371 265 -399 590 -188 1317 -316
1942 -341 685 -27 1330 76 1790 287 41 19 131 59 199 89 150 66 254 122 423
226 432 267 769 581 1040 968 24 34 -43 -124 -99 -235 -59 -117 -192 -331
-262 -420 -78 -101 -291 -309 -401 -392 -473 -357 -1091 -573 -1815 -632 -750
-62 -1625 35 -2428 271 -76 22 -140 38 -143 35 -3 -3 37 -78 90 -168 52 -90
94 -165 92 -167 -2 -1 -47 8 -100 22 -107 27 -136 25 -136 -8 0 -48 148 -256
288 -406 300 -321 668 -498 1207 -582 191 -29 551 -36 755 -14 389 43 736 129
1075 269 520 214 817 384 1149 661 790 656 1170 1528 1116 2562 -9 183 -26
364 -35 372 -2 2 -6 -9 -9 -25z m-51 -538 c-10 -82 -61 -266 -101 -369 -39
-97 -103 -230 -108 -225 -2 2 -6 26 -9 53 -6 43 -1 57 38 137 53 105 112 250
151 372 15 48 30 87 32 87 2 0 1 -25 -3 -55z"/>
<path d="M1963 3708 c-31 -34 -36 -63 -18 -97 27 -53 82 -67 128 -31 30 24 40
60 27 96 -15 37 -38 53 -81 54 -24 0 -42 -7 -56 -22z"/>
<path d="M2923 3708 c-51 -56 -14 -148 59 -148 35 0 88 48 88 80 0 29 -26 76
-45 84 -36 13 -82 6 -102 -16z"/>
</g>
</svg>
